<svg xmlns="http://www.w3.org/2000/svg" width="32" height="32" fill="none"><path fill="#fff" d="M10.496 11.925a2.712 2.712 0 1 0 0-5.42 2.71 2.71 0 0 0 0 5.417v.002ZM12.615 20.206c1.23-3.804 3.232-7.404 6.4-9.774a1.904 1.904 0 0 1 2.285 0c2.828 2.119 4.73 5.218 5.978 8.567a2.325 2.325 0 0 1-2.03 1.204H12.615v.003Z"/><path fill="#CFD7FF" fill-rule="evenodd" d="m27.614 17.746-.064.444c-.041.283-.133.556-.272.806-1.248-3.346-3.15-6.445-5.98-8.564a1.904 1.904 0 0 0-2.285 0c-3.164 2.37-5.166 5.97-6.396 9.774H6.754c-1.156 0-2.135-.867-2.302-2.012l-.064-.445c-.292-1.998-.594-4.071-.594-6.195 0-2.125.302-4.196.594-6.194l.083-.58a2.38 2.38 0 0 1 2.141-2.028l1.488-.13c2.551-.231 5.194-.467 7.9-.467 2.706 0 5.349.236 7.902.464l1.488.13a2.369 2.369 0 0 1 2.139 2.028l.085.58c.292 1.998.594 4.07.594 6.195 0 2.123-.302 4.197-.594 6.194Z" clip-rule="evenodd"/><path stroke="#1A2C68" stroke-linecap="round" stroke-linejoin="round" stroke-width="2.286" d="M28.208 11.552c0 2.281-.347 4.503-.658 6.638a2.34 2.34 0 0 1-2.304 2.013H6.754a2.342 2.342 0 0 1-2.304-2.011c-.31-2.137-.658-4.359-.658-6.64 0-2.331.363-4.599.677-6.775A2.38 2.38 0 0 1 6.61 2.75c3.008-.256 6.153-.595 9.39-.595 3.237 0 6.382.339 9.39.595a2.369 2.369 0 0 1 2.14 2.027c.315 2.176.678 4.444.678 6.775ZM29.735 20.206H2.267M16 29.666v-9.463M6.254 29.207l5.083-9.004M25.746 29.207l-5.083-9.004"/><path stroke="#1A2C68" stroke-linecap="round" stroke-linejoin="round" stroke-width="2.286" d="M12.615 20.206c1.23-3.804 3.232-7.404 6.4-9.774a1.904 1.904 0 0 1 2.285 0c2.828 2.119 4.73 5.218 5.978 8.567a2.325 2.325 0 0 1-2.03 1.204H12.615v.003Z"/><path fill="#fff" d="M10.494 11.925c1.737 0 2.71-.977 2.71-2.711 0-1.735-.975-2.711-2.71-2.711-1.733 0-2.709.976-2.709 2.71 0 1.736.976 2.712 2.709 2.712Z"/><path stroke="#1A2C68" stroke-linecap="round" stroke-linejoin="round" stroke-width="2.286" d="M10.494 11.925c1.737 0 2.71-.977 2.71-2.711 0-1.735-.975-2.711-2.71-2.711-1.733 0-2.709.976-2.709 2.71 0 1.736.976 2.712 2.709 2.712Z"/></svg>