<svg xmlns="http://www.w3.org/2000/svg" width="32" height="32" fill="none"><path fill="#fff" d="M24.944 23.52c-.08 1.026-.176 2.034-.27 3.03l-.087.927a2.28 2.28 0 0 1-2.057 2.077 74.18 74.18 0 0 1-13.06 0 2.279 2.279 0 0 1-2.058-2.077l-.086-.926c-.094-.994-.19-2.005-.268-3.031 2.894-.078 5.883-.153 8.942-.153 3.058 0 6.048.075 8.944.153Z"/><path fill="#CFD7FF" d="M2.08 10.215c0 2.743 2.123 5.028 4.946 5.559a51.478 51.478 0 0 0-.144 3.67c0 1.379.073 2.739.176 4.076 2.894-.078 5.884-.153 8.942-.153s6.048.075 8.942.153c.102-1.337.176-2.697.176-4.075 0-1.242-.06-2.464-.144-3.671 2.82-.528 4.946-2.814 4.946-5.557 0-3.136-2.775-5.675-6.199-5.675a6.651 6.651 0 0 0-2.304.404c-1.115-1.67-3.13-2.788-5.424-2.788-2.295 0-4.306 1.115-5.424 2.784a6.682 6.682 0 0 0-2.295-.4c-3.422-.003-6.196 2.537-6.196 5.673h.002Z"/><path stroke="#1A2C68" stroke-linecap="round" stroke-linejoin="round" stroke-width="2.286" d="M2.08 10.215c0 2.743 2.123 5.028 4.946 5.559a51.478 51.478 0 0 0-.144 3.67c0 1.379.073 2.739.176 4.076 2.894-.078 5.884-.153 8.942-.153s6.048.075 8.942.153c.102-1.337.176-2.697.176-4.075 0-1.242-.06-2.464-.144-3.671 2.82-.528 4.946-2.814 4.946-5.557 0-3.136-2.775-5.675-6.199-5.675a6.651 6.651 0 0 0-2.304.404c-1.115-1.67-3.13-2.788-5.424-2.788-2.295 0-4.306 1.115-5.424 2.784a6.682 6.682 0 0 0-2.295-.4c-3.422-.003-6.196 2.537-6.196 5.673h.002Z"/><path stroke="#1A2C68" stroke-linecap="round" stroke-linejoin="round" stroke-width="2.286" d="M24.944 23.52c-.08 1.026-.176 2.034-.27 3.03l-.087.927a2.28 2.28 0 0 1-2.057 2.077 74.18 74.18 0 0 1-13.06 0 2.279 2.279 0 0 1-2.058-2.077l-.086-.926c-.094-.994-.19-2.005-.268-3.031 2.894-.078 5.883-.153 8.942-.153 3.058 0 6.048.075 8.944.153Z"/></svg>