<svg xmlns="http://www.w3.org/2000/svg" width="32" height="32" fill="none"><path fill="#fff" d="m7.589 29.428-3.017-3.142 3.017-3.143L24 22.907a3.382 3.382 0 1 1 0 6.76L7.59 29.427Z"/><path fill="#CFD7FF" d="M16 4.933c-1.362-1.008-3.321-2.68-8.286-3.077-1.257-.1-2.283.937-2.283 2.199v9.826c0 1.262 1.026 2.272 2.286 2.373 4.96.397 6.92 2.066 8.283 3.074V4.933ZM16 4.933c1.362-1.008 3.321-2.68 8.283-3.077 1.26-.1 2.286.937 2.286 2.199v9.826c0 1.262-1.026 2.272-2.286 2.373-4.96.397-6.92 2.066-8.283 3.074V4.933Z"/><path stroke="#1A2C68" stroke-linecap="round" stroke-linejoin="round" stroke-width="2.286" d="M16 4.933c-1.362-1.008-3.321-2.68-8.286-3.077-1.257-.1-2.283.937-2.283 2.199v9.826c0 1.262 1.026 2.272 2.286 2.373 4.96.397 6.92 2.066 8.283 3.074V4.933ZM16 4.933c1.362-1.008 3.321-2.68 8.283-3.077 1.26-.1 2.286.937 2.286 2.199v9.826c0 1.262-1.026 2.272-2.286 2.373-4.96.397-6.92 2.066-8.283 3.074V4.933ZM20.903 23.18v5.593M7.589 29.429l-3.017-3.143 3.017-3.143L24 22.907a3.378 3.378 0 1 1 0 6.757L7.59 29.429Z"/></svg>