<svg xmlns="http://www.w3.org/2000/svg" width="32" height="32" fill="none"><path fill="#fff" fill-rule="evenodd" d="M7.406 15.108a3.867 3.867 0 0 1 3.337 1.406h5.252c0-.119 0-.973-.004-1.092-.05-2.302-2.005-4.229-4.302-4.24-2.192.011-4.07 1.764-4.283 3.926Z" clip-rule="evenodd"/><path fill="#fff" d="M26.35 30.073c0-.107 0-.88-.005-.987-.046-2.083-1.812-3.827-3.89-3.836-2.078.01-3.845 1.753-3.893 3.836l-.002.987h7.79ZM25.806 21.1a3.353 3.353 0 1 1-6.706 0 3.353 3.353 0 0 1 6.706 0ZM8.336 7.83a3.353 3.353 0 1 0 6.706 0 3.353 3.353 0 0 0-6.706 0Z"/><path fill="#CFD7FF" d="M20.272 5.616a3.874 3.874 0 1 0 7.749 0 3.874 3.874 0 0 0-7.749 0Z"/><path fill="#CFD7FF" d="M18.103 16.475c0-.169 0-.866.005-1.033.073-3.232 2.816-5.938 6.04-5.952 3.224.014 5.966 2.72 6.04 5.952.004.167.007.864.007 1.033H18.102Z"/><path stroke="#1A2C68" stroke-linecap="round" stroke-linejoin="round" stroke-width="2.286" d="M18.107 15.442c.074-3.232 2.816-5.938 6.042-5.952 3.222.014 5.965 2.72 6.038 5.952M8.34 7.83a3.353 3.353 0 1 0 6.707 0 3.353 3.353 0 0 0-6.706 0Z"/><path stroke="#1A2C68" stroke-linecap="round" stroke-linejoin="round" stroke-width="2.286" d="M7.392 15.422c.05-2.302 2.005-4.229 4.302-4.24 2.295.011 4.251 1.938 4.301 4.24"/><path fill="#CFD7FF" d="M11.62 18.97a3.875 3.875 0 1 1-7.749 0 3.875 3.875 0 0 1 7.75 0Z"/><path stroke="#1A2C68" stroke-linecap="round" stroke-linejoin="round" stroke-width="2.286" d="M20.272 5.616a3.874 3.874 0 1 0 7.749 0 3.874 3.874 0 0 0-7.749 0ZM11.62 18.97a3.875 3.875 0 1 1-7.749 0 3.875 3.875 0 0 1 7.75 0Z"/><path fill="#CFD7FF" d="M13.792 29.858c0-.169 0-.896-.005-1.065-.073-3.23-2.818-5.936-6.04-5.947-3.221.011-5.964 2.717-6.04 5.95-.004.166-.006.89-.006 1.06l12.091.002Z"/><path stroke="#1A2C68" stroke-linecap="round" stroke-linejoin="round" stroke-width="2.286" d="M13.785 28.795c-.07-3.234-2.813-5.938-6.036-5.952-3.223.014-5.966 2.72-6.041 5.952M25.81 21.1a3.353 3.353 0 1 1-6.706 0 3.353 3.353 0 0 1 6.706 0ZM26.35 29.086c-.046-2.083-1.815-3.827-3.89-3.836-2.08.01-3.847 1.753-3.893 3.836M15.968 15.422h2.135"/></svg>