<svg xmlns="http://www.w3.org/2000/svg" width="32" height="32" fill="none"><path fill="#CFD7FF" d="M16 30.121h12.99c-1.925-8.06-5.493-16.011-11.763-20.782a2.023 2.023 0 0 0-2.454 0C8.503 14.107 4.937 22.062 3.01 30.12H16v.002Z"/><path stroke="#1A2C68" stroke-linecap="round" stroke-linejoin="round" stroke-width="2.286" d="M16 30.121h12.99c-1.925-8.06-5.493-16.011-11.763-20.782a2.023 2.023 0 0 0-2.454 0C8.503 14.107 4.937 22.062 3.01 30.12H16v.002ZM17.399 9.483l-4.777-4.777M16 30.121v-6.756M14.542 9.483l4.777-4.777"/></svg>