<svg xmlns="http://www.w3.org/2000/svg" width="32" height="32" fill="none"><path fill="#CFD7FF" fill-rule="evenodd" d="M20.423 9.525a19.51 19.51 0 0 0-8.245.292l-1.44 5.765a13.152 13.152 0 0 0 .311 7.472h-.011a4.483 4.483 0 0 1-2.03-.526 13.153 13.153 0 0 1-7.104-11.845l.069-5.942a19.51 19.51 0 0 1 18.505.224l-.055 4.562v-.002Z" clip-rule="evenodd"/><path fill="#fff" d="M18.855 29.76a4.482 4.482 0 0 1-3.95-1.006 13.151 13.151 0 0 1-4.167-13.172l1.44-5.765A19.51 19.51 0 0 1 30.13 14.32l-1.44 5.746a13.175 13.175 0 0 1-9.835 9.696v-.002Z"/><path stroke="#1A2C68" stroke-linecap="round" stroke-linejoin="round" stroke-width="2.286" d="M18.855 29.76a4.482 4.482 0 0 1-3.95-1.006 13.151 13.151 0 0 1-4.167-13.172l1.44-5.765A19.51 19.51 0 0 1 30.13 14.32l-1.44 5.746a13.175 13.175 0 0 1-9.835 9.696v-.002Z"/><path stroke="#1A2C68" stroke-linecap="round" stroke-linejoin="round" stroke-width="2.286" d="M22.04 18.677c.728-.325 1.73-.167 2.26.098M17.401 17.458c-.47-.7-1.41-.937-1.993-.845"/><path stroke="#1A2C68" stroke-linecap="round" stroke-linejoin="round" stroke-width="2.286" d="M11.038 23.054a4.481 4.481 0 0 1-2.03-.526 13.153 13.153 0 0 1-7.104-11.845l.069-5.942a19.51 19.51 0 0 1 18.505.224l-.055 4.555"/></svg>