<svg xmlns="http://www.w3.org/2000/svg" width="33" height="32" fill="none"><g clip-path="url(#a)"><path stroke="#1A2C68" stroke-linecap="round" stroke-linejoin="round" stroke-width="2.286" d="M1.643 30.857 4.137 9.24a9.143 9.143 0 0 1 9.083-8.096h6.56a9.143 9.143 0 0 1 9.083 8.096l2.494 21.618M10.786 2.167v19.02M22.214 2.167v19.02"/><path fill="#CFD7FF" d="M16.5 21.714c-1.63 0-3.84 0-5.801-.413-1.166-.247-2.473.365-2.761 1.522-.34 1.355.324 2.76 1.696 3.021 2.324.442 5.202.442 6.866.442 1.664 0 4.542 0 6.866-.442 1.372-.26 2.035-1.666 1.696-3.021-.288-1.154-1.593-1.77-2.759-1.523-1.965.414-4.173.414-5.803.414Z"/><path stroke="#1A2C68" stroke-linecap="round" stroke-linejoin="round" stroke-width="2.286" d="M16.5 21.714c-1.63 0-3.84 0-5.801-.413-1.166-.247-2.473.365-2.761 1.522-.34 1.355.324 2.76 1.696 3.021 2.324.442 5.202.442 6.866.442 1.664 0 4.542 0 6.866-.442 1.372-.26 2.035-1.666 1.696-3.021-.288-1.154-1.593-1.77-2.759-1.523-1.965.414-4.173.414-5.803.414Z"/></g><defs><clipPath id="a"><path fill="#fff" d="M.5 0h32v32H.5z"/></clipPath></defs></svg>