<svg xmlns="http://www.w3.org/2000/svg" width="32" height="32" fill="none"><path fill="#CFD7FF" d="M16 29.714c8.777 0 13.714-4.937 13.714-13.714 0-8.777-4.937-13.714-13.714-13.714C7.223 2.286 2.286 7.223 2.286 16c0 8.777 4.937 13.714 13.714 13.714Z"/><path stroke="#1A2C68" stroke-linecap="round" stroke-linejoin="round" stroke-width="2.286" d="M16 29.714c8.777 0 13.714-4.937 13.714-13.714 0-8.777-4.937-13.714-13.714-13.714C7.223 2.286 2.286 7.223 2.286 16c0 8.777 4.937 13.714 13.714 13.714ZM16 2.286v27.428"/><path stroke="#1A2C68" stroke-linecap="round" stroke-linejoin="round" stroke-width="2.286" d="M5.19 6.617C7.994 8.633 9.487 11.813 9.487 16c0 4.188-1.493 7.367-4.295 9.383M26.841 6.617c-2.8 2.016-4.292 5.196-4.292 9.383 0 4.188 1.492 7.367 4.292 9.383"/></svg>